<?xml version="1.0" encoding="utf-8"?>
<!-- Generator: Adobe Illustrator 22.1.0, SVG Export Plug-In . SVG Version: 6.00 Build 0)  -->
<svg version="1.1" id="title" xmlns="http://www.w3.org/2000/svg" xmlns:xlink="http://www.w3.org/1999/xlink" x="0px" y="0px"
	 viewBox="0 0 900 655" style="enable-background:new 0 0 900 655;" xml:space="preserve">
<style type="text/css">
	.st0{opacity:0.91;fill:#DADCAB;}
	.st1{fill:#C9C8B4;}
	.st2{opacity:0.91;fill:#DFDCD7;}
	.st3{fill:url(#facet_x5F_of_x5F_cheese_1_);stroke:#F7F0A2;stroke-width:5;stroke-linejoin:round;stroke-miterlimit:10;}
	.st4{fill:#6A7179;}
	.st5{fill:#F8A174;}
	.st6{fill:#FFFFFF;}
	.st7{fill:#8E3026;}
	.st8{fill:none;stroke:#000000;stroke-width:0.5;stroke-linecap:round;stroke-miterlimit:10;}
	
		.st9{fill:url(#top_x5F_cheese_1_);stroke:#F7F0A2;stroke-width:5;stroke-linecap:round;stroke-linejoin:round;stroke-miterlimit:10;}
	.st10{fill:#EDBF2E;}
	.st11{fill:#F9DA4B;stroke:#F7F0A2;stroke-width:5;stroke-miterlimit:10;}
	.st12{fill:#F9DA4B;}
	.st13{fill:#A8A999;}
	.st14{fill:#727471;}
</style>
<polygon id="floor" class="st0" points="759.6,252 447.6,466 19.2,466 19.2,252 "/>
<rect id="wall" x="19.2" y="87.4" class="st1" width="740.5" height="164.6"/>
<path id="border1" class="st2" d="M475.4,240.1c0.5,4.1,1.3,8.1,2.4,11.9H19.2v-11.9H475.4z"/>
<path id="border2" class="st2" d="M759.8,240.1V252H559.5c1.1-3.8,1.9-7.8,2.4-11.9H759.8z"/>
<radialGradient id="facet_x5F_of_x5F_cheese_1_" cx="278.62" cy="297.7208" r="136.69" gradientTransform="matrix(1 0 0 2 0 -297.7208)" gradientUnits="userSpaceOnUse">
	<stop  offset="0" style="stop-color:#FAF4B6"/>
	<stop  offset="0.2493" style="stop-color:#FAF3B2"/>
	<stop  offset="0.483" style="stop-color:#FAEFA7"/>
	<stop  offset="0.7105" style="stop-color:#FAE994"/>
	<stop  offset="0.9328" style="stop-color:#F9E07A"/>
	<stop  offset="1" style="stop-color:#F9DD70"/>
</radialGradient>
<path id="facet_x5F_of_x5F_cheese" class="st3" d="M425.4,262.5l-4.4,161l-30-10.9c0-0.4-0.1-0.8-0.2-1.2c-1.2-6.3-7.6-10.3-14.3-9
	c-2.3,0.4-4.3,1.4-5.9,2.8L309,383c-0.8-9.1-9.3-18.5-21.6-22.8c-12-4.2-24.1-2.4-30.6,3.9L204.1,345c-2.7-6-8.2-9.6-13.7-8.5
	c-1.6,0.3-3.1,1-4.4,2l-45.8-16.6l-8.4-150L425.4,262.5z"/>
<g id="mouse">
	
		<ellipse transform="matrix(0.5413 -0.8408 0.8408 0.5413 23.1023 354.5819)" class="st4" cx="336.6" cy="156.1" rx="22.2" ry="26.9"/>
	
		<ellipse transform="matrix(0.5413 -0.8408 0.8408 0.5413 44.8866 376.7284)" class="st4" cx="367.8" cy="147.2" rx="18.6" ry="20"/>
	
		<ellipse transform="matrix(0.5413 -0.8408 0.8408 0.5413 49.4552 337.5973)" class="st4" cx="334.2" cy="123.5" rx="18.6" ry="20"/>
	
		<ellipse transform="matrix(0.5413 -0.8408 0.8408 0.5413 42.0225 373.5353)" class="st5" cx="363.4" cy="148.3" rx="13.6" ry="15.2"/>
	
		<ellipse transform="matrix(0.5413 -0.8408 0.8408 0.5413 45.7926 340.647)" class="st5" cx="335.1" cy="128.4" rx="13.6" ry="15.2"/>
	
		<ellipse transform="matrix(0.5413 -0.8408 0.8408 0.5413 36.6543 362.2008)" class="st6" cx="350.3" cy="147.5" rx="8.6" ry="6.6"/>
	
		<ellipse transform="matrix(0.5413 -0.8408 0.8408 0.5413 37.5667 349.6654)" class="st6" cx="339.3" cy="140.4" rx="8.6" ry="6.6"/>
	<ellipse transform="matrix(0.3376 -0.9413 0.9413 0.3376 92.2281 423.9095)" cx="347.3" cy="146.4" rx="3.6" ry="2.1"/>
	<ellipse transform="matrix(0.6063 -0.7953 0.7953 0.6063 21.1274 326.5468)" cx="340.3" cy="141.9" rx="3.6" ry="2.1"/>
	<ellipse transform="matrix(0.5413 -0.8408 0.8408 0.5413 25.5221 354.4264)" cx="337.6" cy="153.8" rx="5" ry="7.6"/>
	<path class="st7" d="M351.8,163.1c-5.5,8.6-16.1,11.6-23.6,6.7c-4.9-3.1-7.3-8.8-6.9-14.8c1.5,3.4,4,6.5,7.5,8.8
		c8.1,5.2,18.5,3.8,24.3-3C352.6,161.6,352.2,162.4,351.8,163.1z"/>
	<path class="st8" d="M326,151.5c-1.3-2.2-4.6-7.4-11.2-10.6c-5-2.5-9.7-2.8-12.2-2.7"/>
	<path class="st8" d="M326.1,154.5c-2.3-2.1-7.8-6.5-16.3-7.9c-6.9-1.2-12.5,0.2-15.5,1.1"/>
	<path class="st8" d="M324.2,155c-2.1-1.2-6.2-3.1-11.8-3.3c-5.6-0.2-10,1.4-12.2,2.4"/>
	<path class="st8" d="M347.2,163.8c2.8,0.6,8.4,2.3,13.6,7c3.8,3.4,5.8,7.2,7,9.6"/>
	<path class="st8" d="M348.9,167.5c2.4,1.9,6.3,5.5,9.3,11.1c2.7,5.1,3.7,9.8,4.1,12.8"/>
	<path class="st8" d="M346.3,169.6c1.5,1.5,3.3,3.6,4.8,6.5c3,5.7,3.3,11.1,3.3,14"/>
	<polygon class="st6" points="332.4,165.8 331.4,168.6 329.3,168.1 330.8,165.6 	"/>
	<polygon class="st6" points="329.7,164.9 328.1,167.3 325.8,165.8 327.9,163.8 	"/>
</g>
<linearGradient id="top_x5F_cheese_1_" gradientUnits="userSpaceOnUse" x1="165.6728" y1="113.3499" x2="425.0311" y2="263.0905">
	<stop  offset="0" style="stop-color:#F9DD70"/>
	<stop  offset="6.718838e-02" style="stop-color:#F9E07A"/>
	<stop  offset="0.2895" style="stop-color:#FAE994"/>
	<stop  offset="0.517" style="stop-color:#FAEFA7"/>
	<stop  offset="0.7507" style="stop-color:#FAF3B2"/>
	<stop  offset="1" style="stop-color:#FAF4B6"/>
</linearGradient>
<path id="top_x5F_cheese" class="st9" d="M425.4,262.5l-293.5-90.6c0,0,35.5-24.2,71.7-38.7c33-13.2,88.9-24.6,88.9-24.6l28.9,33.5
	c-2.6,3.3-4.1,7.3-4.1,11.8c0,10.6,8.6,19.1,19.1,19.1c3.4,0,6.7-0.9,9.5-2.5l13,15.1c-0.5,1.7-0.7,3.4-0.7,5.2
	c0,10.6,8.6,19.1,19.1,19.1c0.8,0,1.6-0.1,2.5-0.2L425.4,262.5z"/>
<g id="hole_x5F_top_1_">
	<path class="st10" d="M377.2,322.9c0,7.3-4.1,13.6-10.3,17.3c2.9-3.5,4.6-7.8,4.6-12.5c0-11.4-10-20.6-22.4-20.6
		c-4.5,0-8.6,1.2-12.1,3.3c4.1-4.9,10.6-8.1,17.9-8.1C367.1,302.3,377.2,311.5,377.2,322.9z"/>
	<path class="st10" d="M224.1,269.2c0,8.5-4.9,15.9-12,19.4c4.3-3.9,7-9.6,7-16c0-11.8-9.4-21.4-21-21.4c-3.2,0-6.3,0.7-9.1,2.1
		c3.7-3.4,8.6-5.5,14-5.5C214.7,247.8,224.1,257.4,224.1,269.2z"/>
	<path class="st10" d="M270.3,167.9c-2.7,0.9-5.8,1.6-9.1,1.9c-12.1,1.3-22.4-2-22.9-7.5c-0.6-5.2,7.8-10.4,19.1-12
		c-7.3,2.4-12.2,6.3-11.7,10.3c0.6,5.4,10.9,8.8,22.9,7.5C269.1,168.1,269.7,168,270.3,167.9z"/>
	<path class="st10" d="M321.9,200c-1.9,1.5-5.4,2.4-9.4,2.4c-6.1,0-11-2.3-11-5.1c0-1.9,2.2-3.5,5.6-4.4c-1,0.8-1.6,1.7-1.6,2.6
		c0,2.8,4.9,5.1,11,5.1C318.4,200.7,320.3,200.5,321.9,200z"/>
	<path class="st10" d="M252.8,326.7c4.3-3.2,6.6-8.7,5.5-14.4c-1.5-7.8-9.1-13-17-11.4c-1,0.2-1.9,0.5-2.8,0.9
		c1.7-1.3,3.7-2.2,5.9-2.6c7.9-1.5,15.5,3.6,17,11.4C262.8,317.4,259,324.1,252.8,326.7z"/>
</g>
<g id="hole_x5F_cheese_x5F_facet">
	<path class="st11" d="M366.3,244.3L366.3,244.3c-3,6.3-11.3,9.2-19.5,6.6c-7.9-2.6-12.9-9.6-11.9-16.3l-0.2-0.1
		c3.6-5.2,11.5-7.3,19.3-4.6C361.3,232.4,366.1,238.3,366.3,244.3z"/>
	<path class="st11" d="M228.5,201.8L228.5,201.8c-3,6.1-13.6,8.7-24.3,5.9c-11.1-3-18-10.7-15.5-17.2c0.1-0.2,0.2-0.5,0.3-0.7
		l-0.2-0.1c3.9-5.5,14.6-7.3,24.8-3.8C223.2,189.1,229.3,195.8,228.5,201.8z"/>
</g>
<g id="hole_x5F_cheee">
	<path class="st12" d="M219.1,272.6c0,6.4-2.7,12.1-7,16c-2.7,1.3-5.8,2.1-9.1,2.1c-11.6,0-21-9.6-21-21.4c0-6.4,2.7-12.1,7-16
		c2.7-1.3,5.8-2.1,9.1-2.1C209.7,251.1,219.1,260.7,219.1,272.6z"/>
	<path class="st12" d="M371.5,327.8c0,4.7-1.7,9-4.6,12.5c-3.5,2.1-7.7,3.3-12.1,3.3c-12.4,0-22.4-9.2-22.4-20.6
		c0-4.7,1.7-9,4.6-12.5c3.5-2.1,7.7-3.3,12.1-3.3C361.4,307.2,371.5,316.4,371.5,327.8z"/>
	<path class="st12" d="M252.8,326.7c-0.9,0.4-1.8,0.7-2.8,0.9c-7.9,1.5-15.5-3.6-17-11.4c-1.1-5.6,1.2-11.1,5.5-14.4
		c0.9-0.4,1.8-0.7,2.8-0.9c7.9-1.5,15.5,3.6,17,11.4C259.4,317.9,257.1,323.4,252.8,326.7z"/>
	<path class="st12" d="M282,157.6c0.4,4-4.4,7.9-11.7,10.3c-0.6,0.1-1.2,0.2-1.7,0.2c-12.1,1.3-22.4-2-22.9-7.5
		c-0.4-4,4.4-7.9,11.7-10.3c0.6-0.1,1.2-0.2,1.7-0.2C271.1,148.8,281.4,152.2,282,157.6z"/>
	<path class="st12" d="M323.5,197.4c0,1-0.6,1.9-1.6,2.6c-1.6,0.4-3.4,0.7-5.4,0.7c-6.1,0-11-2.3-11-5.1c0-1,0.6-1.9,1.6-2.6
		c1.6-0.4,3.4-0.7,5.4-0.7C318.6,192.3,323.5,194.6,323.5,197.4z"/>
</g>
<path id="hole_x5F_top" class="st13" d="M562.6,228.6c0,8.2-1.1,16.1-3.1,23.3H552c1.5-6.4,2.3-13.2,2.3-20.2
	c0-34.8-19.7-62.9-44-62.9c-2.3,0-4.6,0.3-6.8,0.7c4.7-2.5,9.8-3.8,15.1-3.8C542.9,165.7,562.6,193.9,562.6,228.6z"/>
<path id="hole" class="st14" d="M554.3,231.7c0,7.1-0.8,13.9-2.3,20.2h-74.2c-2-7.2-3.1-15.1-3.1-23.3c0-27.1,12-50.3,28.9-59.1
	c2.2-0.5,4.5-0.7,6.8-0.7C534.6,168.8,554.3,197,554.3,231.7z"/>
</svg>
